<svg width="1500" height="1500" viewBox="0 0 1500 1500" fill="none" xmlns="http://www.w3.org/2000/svg">
<g clip-path="url(#clip0_12_4120)">
<path d="M294.648 1158.34C388.341 1158.34 464.295 1149.51 464.295 1138.62C464.295 1127.72 388.341 1118.89 294.648 1118.89C200.954 1118.89 125 1127.72 125 1138.62C125 1149.51 200.954 1158.34 294.648 1158.34Z" fill="#5E6EE4"/>
<path d="M1205.35 1159C1299.05 1159 1375 1150.17 1375 1139.27C1375 1128.38 1299.05 1119.55 1205.35 1119.55C1111.66 1119.55 1035.71 1128.38 1035.71 1139.27C1035.71 1150.17 1111.66 1159 1205.35 1159Z" fill="#5E6EE4"/>
<path d="M1169.03 780.191H309.667C307.256 780.188 304.944 779.229 303.239 777.524C301.534 775.819 300.575 773.507 300.572 771.096V351.095C300.575 348.684 301.534 346.372 303.239 344.667C304.944 342.962 307.256 342.003 309.667 342H1169.03C1171.44 342.003 1173.76 342.962 1175.46 344.667C1177.17 346.372 1178.12 348.684 1178.13 351.095V771.096C1178.12 773.507 1177.17 775.819 1175.46 777.524C1173.76 779.229 1171.44 780.188 1169.03 780.191ZM309.667 345.638C308.22 345.64 306.833 346.215 305.81 347.238C304.787 348.261 304.211 349.649 304.21 351.095V771.096C304.211 772.543 304.787 773.93 305.81 774.953C306.833 775.976 308.22 776.551 309.667 776.553H1169.03C1170.48 776.551 1171.87 775.976 1172.89 774.953C1173.91 773.93 1174.49 772.543 1174.49 771.096V351.095C1174.49 349.649 1173.91 348.261 1172.89 347.238C1171.87 346.215 1170.48 345.64 1169.03 345.638H309.667Z" fill="#5E6EE4"/>
<path d="M709.124 524.494C716.914 524.494 723.229 518.179 723.229 510.388C723.229 502.598 716.914 496.282 709.124 496.282C701.334 496.282 695.019 502.598 695.019 510.388C695.019 518.179 701.334 524.494 709.124 524.494Z" fill="#3F3D56"/>
<path d="M709.124 519.456C714.132 519.456 718.192 515.396 718.192 510.388C718.192 505.38 714.132 501.32 709.124 501.32C704.116 501.32 700.056 505.38 700.056 510.388C700.056 515.396 704.116 519.456 709.124 519.456Z" fill="#6C63FF"/>
<path d="M769.576 524.494C777.366 524.494 783.681 518.179 783.681 510.388C783.681 502.598 777.366 496.282 769.576 496.282C761.785 496.282 755.47 502.598 755.47 510.388C755.47 518.179 761.785 524.494 769.576 524.494Z" fill="#3F3D56"/>
<path d="M769.576 519.456C774.584 519.456 778.643 515.396 778.643 510.388C778.643 505.38 774.584 501.32 769.576 501.32C764.568 501.32 760.508 505.38 760.508 510.388C760.508 515.396 764.568 519.456 769.576 519.456Z" fill="#6C63FF"/>
<path d="M707.537 511.396C700.767 511.374 694.232 513.884 689.218 518.433C684.203 522.982 681.071 529.242 680.436 535.983L677.615 564.891C677.281 568.322 677.667 571.785 678.751 575.058C679.835 578.33 681.591 581.34 683.907 583.893C686.224 586.447 689.049 588.487 692.201 589.883C695.352 591.28 698.762 592.001 702.209 592.001H776.491C779.938 592.001 783.347 591.28 786.499 589.883C789.651 588.487 792.476 586.447 794.792 583.893C797.109 581.34 798.865 578.33 799.949 575.058C801.032 571.785 801.419 568.322 801.084 564.891L798.264 535.983C797.629 529.242 794.496 522.982 789.482 518.433C784.467 513.884 777.933 511.374 771.162 511.396H707.537Z" fill="#3F3D56"/>
<path d="M746.876 552.267C748.957 549.473 752.061 547.618 755.508 547.109C758.954 546.599 762.462 547.477 765.262 549.549C766.818 547.46 767.719 544.956 767.852 542.354C767.984 539.753 767.341 537.17 766.005 534.934C764.668 532.697 762.698 530.908 760.344 529.792C757.99 528.676 755.358 528.284 752.781 528.665C750.204 529.046 747.798 530.183 745.868 531.932C743.937 533.681 742.569 535.964 741.937 538.492C741.305 541.019 741.437 543.677 742.316 546.129C743.195 548.581 744.782 550.718 746.876 552.267Z" fill="white"/>
<path d="M716.165 554.807C718.246 552.013 721.35 550.158 724.796 549.649C728.242 549.139 731.75 550.017 734.55 552.09C736.107 550 737.008 547.496 737.14 544.894C737.272 542.293 736.63 539.71 735.293 537.474C733.957 535.238 731.987 533.448 729.633 532.332C727.279 531.216 724.647 530.824 722.07 531.205C719.493 531.586 717.087 532.723 715.156 534.472C713.226 536.222 711.858 538.504 711.226 541.032C710.593 543.559 710.725 546.217 711.605 548.669C712.484 551.122 714.071 553.258 716.165 554.807Z" fill="white"/>
<path d="M724.874 546.505C727.552 546.505 729.723 544.334 729.723 541.656C729.723 538.978 727.552 536.807 724.874 536.807C722.196 536.807 720.025 538.978 720.025 541.656C720.025 544.334 722.196 546.505 724.874 546.505Z" fill="#3F3D56"/>
<path d="M756.278 542.811C758.957 542.811 761.128 540.64 761.128 537.961C761.128 535.283 758.957 533.112 756.278 533.112C753.6 533.112 751.429 535.283 751.429 537.961C751.429 540.64 753.6 542.811 756.278 542.811Z" fill="#3F3D56"/>
<path d="M739.663 563.789C742.445 563.789 744.701 561.534 744.701 558.751C744.701 555.969 742.445 553.714 739.663 553.714C736.881 553.714 734.625 555.969 734.625 558.751C734.625 561.534 736.881 563.789 739.663 563.789Z" fill="#6C63FF"/>
<path d="M719.558 566.812C719.812 569.564 721.085 572.123 723.126 573.986C725.168 575.85 727.831 576.884 730.595 576.888H750.746C753.51 576.884 756.174 575.85 758.215 573.986C760.256 572.122 761.529 569.564 761.783 566.812H719.558Z" fill="white"/>
<path d="M427.333 524.998C427.334 526.852 426.971 528.687 426.263 530.4C425.555 532.113 424.516 533.67 423.206 534.981C421.896 536.292 420.34 537.333 418.628 538.042C416.916 538.752 415.081 539.118 413.227 539.118C411.374 539.118 409.538 538.752 407.826 538.042C406.114 537.333 404.558 536.292 403.248 534.981C401.938 533.67 400.899 532.113 400.191 530.4C399.483 528.687 399.12 526.852 399.122 524.998C399.122 517.208 405.437 484.695 413.227 484.695C421.017 484.695 427.333 517.208 427.333 524.998Z" fill="#5E6EE4"/>
<path d="M422.295 524.998C422.295 527.403 421.339 529.71 419.639 531.41C417.938 533.111 415.632 534.066 413.227 534.066C410.822 534.066 408.516 533.111 406.815 531.41C405.115 529.71 404.159 527.403 404.159 524.998C404.159 519.99 408.219 489.733 413.227 489.733C418.235 489.733 422.295 519.99 422.295 524.998Z" fill="white"/>
<path d="M459.573 524.998C459.573 528.739 461.059 532.327 463.705 534.972C466.35 537.618 469.938 539.104 473.679 539.104C477.42 539.104 481.008 537.618 483.653 534.972C486.298 532.327 487.784 528.739 487.784 524.998C487.784 517.208 481.469 481.673 473.679 481.673C465.889 481.673 459.573 517.208 459.573 524.998Z" fill="#5E6EE4"/>
<path d="M464.611 524.998C464.611 527.403 465.567 529.71 467.267 531.41C468.968 533.111 471.274 534.066 473.679 534.066C476.084 534.066 478.391 533.111 480.091 531.41C481.792 529.71 482.747 527.403 482.747 524.998C482.747 519.99 478.687 486.711 473.679 486.711C468.671 486.711 464.611 519.99 464.611 524.998Z" fill="white"/>
<path d="M411.64 526.006C404.87 525.983 398.336 528.493 393.321 533.043C388.306 537.592 385.174 543.852 384.539 550.593L381.718 579.501C381.384 582.932 381.771 586.395 382.854 589.667C383.938 592.94 385.694 595.95 388.011 598.503C390.327 601.056 393.152 603.097 396.304 604.493C399.455 605.889 402.865 606.611 406.312 606.611H480.594C484.041 606.611 487.45 605.889 490.602 604.493C493.754 603.097 496.579 601.056 498.895 598.503C501.212 595.95 502.968 592.94 504.052 589.667C505.135 586.395 505.522 582.932 505.188 579.501L502.367 550.593C501.732 543.852 498.599 537.592 493.585 533.043C488.57 528.493 482.036 525.983 475.266 526.006H411.64Z" fill="#5E6EE4"/>
<path d="M450.979 566.877C453.06 564.083 456.164 562.228 459.611 561.718C463.057 561.209 466.565 562.087 469.365 564.159C470.921 562.07 471.822 559.566 471.955 556.964C472.087 554.362 471.444 551.78 470.108 549.543C468.771 547.307 466.801 545.518 464.447 544.402C462.094 543.286 459.461 542.893 456.884 543.274C454.307 543.655 451.901 544.793 449.971 546.542C448.04 548.291 446.672 550.574 446.04 553.101C445.408 555.628 445.54 558.287 446.419 560.739C447.298 563.191 448.885 565.327 450.979 566.877Z" fill="white"/>
<path d="M420.268 569.417C422.349 566.623 425.453 564.768 428.899 564.259C432.346 563.749 435.853 564.627 438.654 566.699C440.21 564.61 441.111 562.106 441.243 559.504C441.375 556.902 440.733 554.32 439.396 552.084C438.06 549.847 436.09 548.058 433.736 546.942C431.382 545.826 428.75 545.434 426.173 545.815C423.596 546.196 421.19 547.333 419.259 549.082C417.329 550.831 415.961 553.114 415.329 555.641C414.696 558.169 414.828 560.827 415.708 563.279C416.587 565.731 418.174 567.867 420.268 569.417Z" fill="white"/>
<path d="M428.977 569.176C431.655 569.176 433.826 567.004 433.826 564.326C433.826 561.648 431.655 559.477 428.977 559.477C426.299 559.477 424.128 561.648 424.128 564.326C424.128 567.004 426.299 569.176 428.977 569.176Z" fill="#5E6EE4"/>
<path d="M461.389 566.488C464.067 566.488 466.238 564.317 466.238 561.639C466.238 558.961 464.067 556.79 461.389 556.79C458.711 556.79 456.54 558.961 456.54 561.639C456.54 564.317 458.711 566.488 461.389 566.488Z" fill="#5E6EE4"/>
<path d="M443.766 578.399C446.548 578.399 448.804 576.143 448.804 573.361C448.804 570.579 446.548 568.323 443.766 568.323C440.984 568.323 438.729 570.579 438.729 573.361C438.729 576.143 440.984 578.399 443.766 578.399Z" fill="white"/>
<path d="M454.304 577.034C456.027 576.137 457.991 576.737 459.677 577.429C461.522 578.186 463.312 579.045 465.214 579.662C468.764 580.904 472.568 581.235 476.278 580.625C482.989 579.371 488.62 573.373 487.112 566.259C486.709 564.357 483.794 565.162 484.197 567.063C484.447 568.488 484.33 569.953 483.856 571.32C483.382 572.686 482.567 573.91 481.488 574.874C479.024 576.984 475.85 578.08 472.608 577.939C469.028 577.767 465.519 576.868 462.297 575.297C459.219 573.934 455.99 572.752 452.778 574.424C451.052 575.322 452.579 577.932 454.304 577.034H454.304Z" fill="white"/>
<path d="M435.135 574.424C432.005 572.795 428.838 573.877 425.823 575.205C422.539 576.819 418.96 577.75 415.305 577.938C412.129 578.074 409.016 577.027 406.566 575.001C405.444 574.038 404.591 572.8 404.092 571.409C403.592 570.017 403.463 568.519 403.716 567.063C404.119 565.165 401.205 564.354 400.802 566.259C399.294 573.372 404.925 579.371 411.635 580.625C415.346 581.237 419.15 580.905 422.699 579.662C424.601 579.042 426.391 578.187 428.236 577.429C429.92 576.737 431.888 576.137 433.61 577.034C435.333 577.931 436.863 575.323 435.135 574.424Z" fill="white"/>
<path d="M444.964 590.994C449.416 590.994 453.024 589.189 453.024 586.963C453.024 584.737 449.416 582.933 444.964 582.933C440.513 582.933 436.904 584.737 436.904 586.963C436.904 589.189 440.513 590.994 444.964 590.994Z" fill="white"/>
<path d="M984.366 551.056C1000.08 551.056 1012.82 538.317 1012.82 522.601C1012.82 506.886 1000.08 494.146 984.366 494.146C968.651 494.146 955.912 506.886 955.912 522.601C955.912 538.317 968.651 551.056 984.366 551.056Z" fill="#3F3D56"/>
<path d="M984.366 540.894C994.469 540.894 1002.66 532.704 1002.66 522.601C1002.66 512.498 994.469 504.308 984.366 504.308C974.264 504.308 966.074 512.498 966.074 522.601C966.074 532.704 974.264 540.894 984.366 540.894Z" fill="#6C63FF"/>
<path d="M1086.13 551.056C1101.84 551.056 1114.58 538.317 1114.58 522.601C1114.58 506.886 1101.84 494.146 1086.13 494.146C1070.41 494.146 1057.67 506.886 1057.67 522.601C1057.67 538.317 1070.41 551.056 1086.13 551.056Z" fill="#3F3D56"/>
<path d="M1086.13 540.894C1096.23 540.894 1104.42 532.704 1104.42 522.601C1104.42 512.498 1096.23 504.308 1086.13 504.308C1076.02 504.308 1067.83 512.498 1067.83 522.601C1067.83 532.704 1076.02 540.894 1086.13 540.894Z" fill="#6C63FF"/>
<path d="M1003.94 513.533C1003.5 513.533 1003.06 513.543 1002.63 513.564C986.229 514.333 974.895 530.383 978.89 546.304L979.469 548.61C981.525 556.803 982.925 565.133 984.31 573.466C985.265 579.241 988.24 584.489 992.704 588.275C997.168 592.061 1002.83 594.139 1008.69 594.138H1062.82C1068.89 594.139 1074.75 591.901 1079.28 587.853C1083.81 583.805 1086.69 578.23 1087.37 572.194C1088.32 564.659 1089.78 557.197 1091.72 549.856L1092.61 546.304C1096.61 530.383 1085.27 514.333 1068.88 513.564C1068.44 513.543 1068 513.533 1067.56 513.533H1003.94Z" fill="#3F3D56"/>
<path d="M1043.28 554.404C1045.36 551.61 1048.46 549.755 1051.91 549.246C1055.35 548.736 1058.86 549.614 1061.66 551.686C1063.22 549.597 1064.12 547.093 1064.25 544.491C1064.38 541.89 1063.74 539.307 1062.41 537.071C1061.07 534.835 1059.1 533.045 1056.75 531.929C1054.39 530.813 1051.76 530.421 1049.18 530.802C1046.61 531.183 1044.2 532.32 1042.27 534.069C1040.34 535.819 1038.97 538.101 1038.34 540.629C1037.71 543.156 1037.84 545.814 1038.72 548.266C1039.6 550.718 1041.18 552.855 1043.28 554.404Z" fill="white"/>
<path d="M1012.57 556.944C1014.65 554.15 1017.75 552.295 1021.2 551.786C1024.64 551.276 1028.15 552.154 1030.95 554.227C1032.51 552.137 1033.41 549.633 1033.54 547.031C1033.67 544.43 1033.03 541.847 1031.69 539.611C1030.36 537.375 1028.39 535.585 1026.03 534.469C1023.68 533.353 1021.05 532.961 1018.47 533.342C1015.89 533.723 1013.49 534.86 1011.56 536.609C1009.63 538.359 1008.26 540.641 1007.63 543.169C1006.99 545.696 1007.13 548.354 1008 550.806C1008.88 553.259 1010.47 555.395 1012.57 556.944Z" fill="white"/>
<path d="M1016.24 548.642C1018.92 548.642 1021.09 546.471 1021.09 543.793C1021.09 541.115 1018.92 538.944 1016.24 538.944C1013.56 538.944 1011.39 541.115 1011.39 543.793C1011.39 546.471 1013.56 548.642 1016.24 548.642Z" fill="#3F3D56"/>
<path d="M1047.64 546.963C1050.32 546.963 1052.49 544.792 1052.49 542.113C1052.49 539.435 1050.32 537.264 1047.64 537.264C1044.96 537.264 1042.79 539.435 1042.79 542.113C1042.79 544.792 1044.96 546.963 1047.64 546.963Z" fill="#3F3D56"/>
<path d="M1041.1 560.888C1041.1 561.699 1040.91 562.498 1040.53 563.218C1040.16 563.937 1039.61 564.555 1038.95 565.019C1038.28 565.483 1037.52 565.78 1036.71 565.884C1035.91 565.989 1035.09 565.897 1034.33 565.618C1033.57 565.338 1032.88 564.879 1032.34 564.28C1031.79 563.68 1031.4 562.957 1031.19 562.173C1030.99 561.389 1030.97 560.566 1031.15 559.775C1031.33 558.984 1031.7 558.248 1032.22 557.63C1033.15 556.541 1034.21 559.881 1035.75 559.881C1037.35 559.881 1039.08 556.591 1040 557.747C1040.72 558.639 1041.1 559.747 1041.1 560.888Z" fill="#6C63FF"/>
<path d="M1024.98 567.941H1049.16C1049.16 571.148 1047.89 574.223 1045.62 576.491C1043.35 578.758 1040.28 580.032 1037.07 580.032C1033.86 580.032 1030.79 578.758 1028.52 576.491C1026.25 574.223 1024.98 571.148 1024.98 567.941Z" fill="white"/>
<path d="M1032.22 519.578C1035.84 519.578 1038.77 514.616 1038.77 508.495C1038.77 502.374 1035.84 497.412 1032.22 497.412C1028.61 497.412 1025.68 502.374 1025.68 508.495C1025.68 514.616 1028.61 519.578 1032.22 519.578Z" fill="#6C63FF"/>
<path d="M1047.66 514.267C1051.17 509.252 1051.62 503.506 1048.66 501.431C1045.69 499.357 1040.45 501.74 1036.93 506.754C1033.42 511.768 1032.98 517.515 1035.94 519.589C1038.91 521.664 1044.15 519.281 1047.66 514.267Z" fill="#6C63FF"/>
<path d="M528.58 644.875H358.326C355.914 644.872 353.603 643.913 351.898 642.208C350.192 640.503 349.233 638.191 349.23 635.78V452.504C349.233 450.092 350.192 447.781 351.898 446.076C353.603 444.37 355.914 443.411 358.326 443.408H528.58C530.992 443.411 533.303 444.37 535.008 446.076C536.713 447.781 537.673 450.092 537.675 452.504V635.78C537.673 638.191 536.713 640.503 535.008 642.208C533.303 643.913 530.992 644.872 528.58 644.875ZM358.326 447.047C356.879 447.048 355.492 447.624 354.469 448.647C353.446 449.67 352.87 451.057 352.869 452.504V635.78C352.87 637.227 353.446 638.614 354.469 639.637C355.492 640.66 356.879 641.235 358.326 641.237H528.58C530.027 641.235 531.414 640.66 532.437 639.637C533.46 638.614 534.036 637.227 534.037 635.78V452.504C534.036 451.057 533.46 449.67 532.437 448.647C531.414 447.624 530.027 447.048 528.58 447.047H358.326Z" fill="#5E6EE4"/>
<path d="M824.477 644.875H654.223C651.811 644.872 649.5 643.913 647.794 642.208C646.089 640.503 645.13 638.191 645.127 635.78V452.504C645.13 450.092 646.089 447.781 647.794 446.076C649.5 444.37 651.811 443.411 654.223 443.408H824.477C826.888 443.411 829.2 444.37 830.905 446.076C832.61 447.781 833.569 450.092 833.572 452.504V635.78C833.569 638.191 832.61 640.503 830.905 642.208C829.2 643.913 826.888 644.872 824.477 644.875ZM654.223 447.047C652.776 447.048 651.389 447.624 650.366 448.647C649.343 449.67 648.767 451.057 648.765 452.504V635.78C648.767 637.227 649.343 638.614 650.366 639.637C651.389 640.66 652.776 641.235 654.223 641.237H824.477C825.924 641.235 827.311 640.66 828.334 639.637C829.357 638.614 829.933 637.227 829.934 635.78V452.504C829.933 451.057 829.357 449.67 828.334 448.647C827.311 447.624 825.924 447.048 824.477 447.047H654.223Z" fill="#5E6EE4"/>
<path d="M1120.37 644.875H950.12C947.708 644.872 945.397 643.913 943.691 642.208C941.986 640.503 941.027 638.191 941.024 635.78V452.504C941.027 450.092 941.986 447.781 943.691 446.076C945.397 444.37 947.708 443.411 950.12 443.408H1120.37C1122.79 443.411 1125.1 444.37 1126.8 446.076C1128.51 447.781 1129.47 450.092 1129.47 452.504V635.78C1129.47 638.191 1128.51 640.503 1126.8 642.208C1125.1 643.913 1122.79 644.872 1120.37 644.875ZM950.12 447.047C948.673 447.048 947.286 447.624 946.263 448.647C945.24 449.67 944.664 451.057 944.662 452.504V635.78C944.664 637.227 945.24 638.614 946.263 639.637C947.286 640.66 948.673 641.235 950.12 641.237H1120.37C1121.82 641.235 1123.21 640.66 1124.23 639.637C1125.25 638.614 1125.83 637.227 1125.83 635.78V452.504C1125.83 451.057 1125.25 449.67 1124.23 448.647C1123.21 447.624 1121.82 447.048 1120.37 447.047H950.12Z" fill="#5E6EE4"/>
<path d="M993.164 665.631C992.815 665.632 992.481 665.77 992.234 666.017C991.987 666.263 991.849 666.598 991.849 666.946V677.468C991.849 677.816 991.987 678.151 992.234 678.397C992.481 678.644 992.815 678.782 993.164 678.783H1077.33C1077.68 678.782 1078.01 678.644 1078.26 678.397C1078.51 678.151 1078.64 677.816 1078.65 677.468V666.946C1078.64 666.598 1078.51 666.263 1078.26 666.017C1078.01 665.77 1077.68 665.632 1077.33 665.631H993.164Z" fill="#3F3D56"/>
<path d="M697.267 665.631C696.918 665.632 696.584 665.77 696.337 666.017C696.091 666.263 695.952 666.598 695.952 666.946V677.468C695.952 677.816 696.091 678.151 696.337 678.397C696.584 678.644 696.918 678.782 697.267 678.783H781.433C781.782 678.782 782.116 678.644 782.363 678.397C782.609 678.151 782.748 677.816 782.748 677.468V666.946C782.748 666.598 782.609 666.263 782.363 666.017C782.116 665.77 781.782 665.632 781.433 665.631H697.267Z" fill="#6C63FF"/>
<path d="M401.37 665.631C401.021 665.632 400.687 665.77 400.44 666.017C400.194 666.263 400.055 666.598 400.055 666.946V677.468C400.055 677.816 400.194 678.151 400.44 678.397C400.687 678.644 401.021 678.782 401.37 678.783H485.536C485.885 678.782 486.219 678.644 486.466 678.397C486.712 678.151 486.851 677.816 486.851 677.468V666.946C486.851 666.598 486.712 666.263 486.466 666.017C486.219 665.77 485.885 665.632 485.536 665.631H401.37Z" fill="#5E6EE4"/>
<path d="M357.772 838.764L353.827 855.861C353.827 855.861 355.142 895.315 344.621 891.37C334.101 887.424 336.731 853.231 336.731 853.231L345.936 836.134L357.772 838.764Z" fill="#FFB8B8"/>
<path d="M299.25 651.357C313.776 651.357 325.552 639.581 325.552 625.055C325.552 610.528 313.776 598.752 299.25 598.752C284.724 598.752 272.948 610.528 272.948 625.055C272.948 639.581 284.724 651.357 299.25 651.357Z" fill="#FFB8B8"/>
<path d="M278.867 632.288L276.236 670.427L309.114 674.372C309.114 674.372 309.114 642.809 311.744 638.864C314.374 634.918 278.867 632.288 278.867 632.288Z" fill="#FFB8B8"/>
<path d="M351.778 681.955L309.176 663.958C309.176 663.958 288.819 648.278 276.895 659.894L271.544 667.559C271.544 667.559 224.217 686.012 224.229 700.479L242.704 772.795C242.704 772.795 232.219 813.574 248.002 816.19L333.491 824.006C333.491 824.006 345.314 809.529 334.777 791.127L338.684 747.724L351.778 681.955Z" fill="#5E6EE4"/>
<path d="M322.847 683.296L351.778 681.955C351.778 681.955 360.986 684.577 367.583 709.559C374.181 734.541 375.532 775.309 375.532 775.309L359.815 848.971L340.086 846.358L347.915 775.333L334.722 728L322.847 683.296Z" fill="#5E6EE4"/>
<path d="M240.003 691.259L225.743 695.714C225.743 695.714 213.72 713.639 213.728 722.845C213.737 732.051 208.537 801.758 208.537 801.758L242.779 858.279L253.276 830.652L232.203 795.162L249.261 751.747L240.003 691.259Z" fill="#5E6EE4"/>
<path d="M337.388 821.01L242.837 812.691C242.837 812.691 233.495 872.3 234.811 895.973C236.126 919.645 237.441 956.469 237.441 956.469L226.92 1116.92L267.688 1111.66L272.948 978.826L290.045 906.494L309.771 998.553L322.922 1116.92L358.43 1112.97L346.594 969.62C346.594 969.62 357.115 840.737 337.388 821.01Z" fill="#FF76B8"/>
<path d="M350.539 1106.39L362.375 1110.34C362.375 1110.34 387.362 1103.76 380.786 1120.86C374.211 1137.96 355.8 1135.33 355.8 1135.33C355.8 1135.33 333.443 1152.42 324.237 1139.27L329.498 1111.66L350.539 1106.39Z" fill="#2F2E41"/>
<path d="M254.537 1106.39L266.373 1110.34C266.373 1110.34 291.36 1103.76 284.784 1120.86C278.209 1137.96 259.797 1135.33 259.797 1135.33C259.797 1135.33 237.441 1152.42 228.235 1139.27L233.495 1111.66L254.537 1106.39Z" fill="#2F2E41"/>
<path d="M278.866 648.069C278.866 648.069 251.249 628.342 265.715 604.67C275.751 588.247 296.547 589.547 308.343 591.884C311.521 592.47 314.509 593.821 317.049 595.82C319.588 597.818 321.604 600.404 322.922 603.355C324.895 607.958 324.895 612.561 317.004 612.561C301.223 612.561 309.114 624.397 309.114 624.397C309.114 624.397 298.593 627.027 301.223 636.233C303.853 645.439 278.866 648.069 278.866 648.069Z" fill="#2F2E41"/>
<path d="M1224.19 1109.98C1224.19 1109.98 1195.02 1112.22 1198.01 1122.69C1201 1133.16 1224.19 1131.66 1224.19 1131.66C1224.19 1131.66 1242.13 1130.17 1251.86 1133.16C1261.58 1136.15 1272.79 1133.16 1273.54 1127.93C1274.29 1122.69 1268.31 1118.95 1268.31 1118.95L1264.57 1111.47L1224.19 1109.98Z" fill="#2F2E41"/>
<path d="M1147.54 876.282L1144.55 888.247C1144.55 888.247 1131.08 915.917 1147.54 915.917C1163.99 915.917 1158.01 890.491 1158.01 890.491L1159.5 878.526L1147.54 876.282Z" fill="#FFB8B8"/>
<path d="M1291.86 866.561L1294.85 878.526C1294.85 878.526 1308.31 906.195 1291.86 906.195C1275.41 906.195 1281.39 880.769 1281.39 880.769L1279.9 868.804L1291.86 866.561Z" fill="#FFB8B8"/>
<path d="M1214.09 663.152C1231.85 663.152 1246.25 648.755 1246.25 630.995C1246.25 613.236 1231.85 598.839 1214.09 598.839C1196.33 598.839 1181.94 613.236 1181.94 630.995C1181.94 648.755 1196.33 663.152 1214.09 663.152Z" fill="#FFB8B8"/>
<path d="M1204.37 655.674C1204.37 655.674 1208.11 672.874 1205.86 681.1C1203.62 689.326 1252.23 679.604 1252.23 679.604C1252.23 679.604 1235.03 651.186 1235.78 650.439L1204.37 655.674Z" fill="#FFB8B8"/>
<path d="M1211.77 674.715C1211.77 674.715 1198.3 670.987 1193.82 675.478C1189.34 679.969 1163.17 692.705 1163.17 692.705L1181.22 802.62L1258.97 785.352L1272.34 681.392C1272.34 681.392 1251.13 668.975 1247.52 671.457C1243.92 673.939 1211.77 674.715 1211.77 674.715Z" fill="#5E6EE4"/>
<path d="M1169.16 693.447L1165.57 691.526C1165.57 691.526 1151.96 694.21 1152.71 704.679C1153.47 715.148 1156.51 773.476 1156.51 773.476L1144.64 878.93L1166.33 882.65L1187.94 794.388L1169.16 693.447Z" fill="#5E6EE4"/>
<path d="M1270.1 683.637L1273.69 681.709C1273.69 681.709 1287.3 684.37 1286.56 694.84C1285.82 705.311 1282.88 763.644 1282.88 763.644L1294.94 869.077L1273.26 872.835L1251.5 784.61L1270.1 683.637Z" fill="#5E6EE4"/>
<path d="M1181.94 791.778L1178.94 837.395L1169.22 928.63L1183.43 1117.83L1232.79 1119.33L1217.83 939.1L1232.79 877.03L1281.67 875.219C1281.67 875.219 1285.13 803.743 1257.46 781.308L1181.94 791.778Z" fill="#FF76B8"/>
<path d="M1235.78 866.561L1227.92 1031.46L1225.31 1114.84L1269.43 1119.33L1280.56 874.107L1263.45 856.839L1235.78 866.561Z" fill="#FF76B8"/>
<path d="M1228.3 588.369C1228.3 588.369 1199.13 584.63 1190.91 598.839C1190.91 598.839 1188.67 609.308 1181.19 613.047C1173.71 616.787 1182.68 629.5 1184.93 633.239C1187.17 636.978 1193.15 658.665 1186.42 663.9C1179.69 669.134 1198.39 684.091 1198.39 684.091C1198.39 684.091 1207.36 696.056 1199.88 705.03C1192.4 714.004 1209.6 716.995 1209.6 716.995C1209.6 716.995 1205.87 742.421 1212.6 735.691C1212.6 735.691 1215.59 793.273 1244 757.378C1272.42 721.482 1284.38 704.282 1272.42 690.073C1260.45 675.865 1269.43 663.152 1269.43 663.152C1269.43 663.152 1273.17 655.673 1264.94 644.456C1256.72 633.239 1256.72 588.369 1228.3 588.369Z" fill="#2F2E41"/>
<path d="M1186.05 1114.46C1186.05 1114.46 1156.88 1116.71 1159.88 1127.18C1162.87 1137.65 1186.05 1136.15 1186.05 1136.15C1186.05 1136.15 1204 1134.66 1213.72 1137.65C1223.44 1140.64 1234.66 1137.65 1235.4 1132.41C1236.15 1127.18 1230.17 1123.44 1230.17 1123.44L1226.43 1115.96L1186.05 1114.46Z" fill="#2F2E41"/>
<path d="M855.16 499.41L812.466 473.687L824.934 521.95L832.45 504.367L844.986 521.177L848.703 518.405L836.168 501.594L855.16 499.41Z" fill="#6C63FF"/>
<path d="M912.885 499.41L955.58 473.687L943.111 521.95L935.596 504.367L923.06 521.177L919.342 518.405L931.878 501.594L912.885 499.41Z" fill="#3F3D56"/>
<g clip-path="url(#clip1_12_4120)">
<path d="M670.711 942.709H454.177C451.281 942.705 448.504 941.556 446.456 939.514C444.409 937.471 443.257 934.701 443.253 931.813V810.673C443.257 807.784 444.409 805.014 446.456 802.972C448.504 800.929 451.281 799.78 454.177 799.777H670.711C673.607 799.78 676.384 800.929 678.431 802.972C680.479 805.014 681.631 807.784 681.634 810.673V931.813C681.631 934.701 680.479 937.471 678.431 939.514C676.384 941.556 673.607 942.705 670.711 942.709ZM454.177 801.059C451.621 801.061 449.171 802.075 447.365 803.878C445.558 805.68 444.541 808.124 444.538 810.673V931.813C444.541 934.361 445.558 936.805 447.365 938.608C449.171 940.41 451.621 941.424 454.177 941.427H670.711C673.266 941.424 675.716 940.41 677.523 938.608C679.33 936.805 680.346 934.361 680.349 931.813V810.673C680.346 808.124 679.33 805.68 677.523 803.878C675.716 802.075 673.266 801.061 670.711 801.059H454.177Z" fill="#E6E6E6"/>
<path d="M615.839 848.049H574.074C573.307 848.049 572.572 848.352 572.029 848.893C571.487 849.434 571.183 850.168 571.183 850.933C571.183 851.698 571.487 852.431 572.029 852.972C572.572 853.513 573.307 853.817 574.074 853.817H615.839C616.606 853.817 617.341 853.513 617.883 852.972C618.426 852.431 618.73 851.698 618.73 850.933C618.73 850.168 618.426 849.434 617.883 848.893C617.341 848.352 616.606 848.049 615.839 848.049Z" fill="#E6E6E6"/>
<path d="M656.55 866.316H573.522C572.23 866.316 571.183 867.61 571.183 869.2C571.183 870.79 572.23 872.084 573.522 872.084H656.55C657.842 872.084 658.889 870.79 658.889 869.2C658.889 867.61 657.842 866.316 656.55 866.316Z" fill="#E6E6E6"/>
<path d="M656.55 885.023H573.522C572.23 885.023 571.183 886.318 571.183 887.907C571.183 889.497 572.23 890.792 573.522 890.792H656.55C657.842 890.792 658.889 889.497 658.889 887.907C658.889 886.318 657.842 885.023 656.55 885.023Z" fill="#E6E6E6"/>
<path d="M542.204 916.109H470.24C468.451 916.107 466.736 915.397 465.471 914.136C464.207 912.874 463.495 911.164 463.493 909.379V829.26C463.495 827.476 464.207 825.765 465.471 824.504C466.736 823.242 468.451 822.532 470.24 822.53H542.204C543.993 822.532 545.707 823.242 546.972 824.504C548.237 825.765 548.948 827.476 548.95 829.26V909.379C548.948 911.164 548.237 912.874 546.972 914.136C545.707 915.397 543.993 916.107 542.204 916.109Z" fill="#E6E6E6"/>
<path d="M675.852 824.774C688.627 824.774 698.983 814.443 698.983 801.699C698.983 788.956 688.627 778.625 675.852 778.625C663.076 778.625 652.72 788.956 652.72 801.699C652.72 814.443 663.076 824.774 675.852 824.774Z" fill="#E6E6E6"/>
<path d="M977.844 942.709H761.309C758.413 942.705 755.636 941.556 753.589 939.514C751.541 937.471 750.389 934.701 750.386 931.813V810.673C750.389 807.784 751.541 805.014 753.589 802.972C755.636 800.929 758.413 799.78 761.309 799.777H977.844C980.74 799.78 983.516 800.929 985.564 802.972C987.611 805.014 988.763 807.784 988.767 810.673V931.813C988.763 934.701 987.611 937.471 985.564 939.514C983.516 941.556 980.74 942.705 977.844 942.709ZM761.309 801.059C758.754 801.061 756.304 802.075 754.497 803.878C752.69 805.68 751.674 808.124 751.671 810.673V931.813C751.674 934.361 752.69 936.805 754.497 938.608C756.304 940.41 758.754 941.424 761.309 941.427H977.844C980.399 941.424 982.849 940.41 984.655 938.608C986.462 936.805 987.479 934.361 987.482 931.813V810.673C987.479 808.124 986.462 805.68 984.655 803.878C982.849 802.075 980.399 801.061 977.844 801.059H761.309Z" fill="#3F3D56"/>
<path d="M922.971 848.049H881.206C880.44 848.049 879.704 848.352 879.162 848.893C878.62 849.434 878.315 850.168 878.315 850.933C878.315 851.698 878.62 852.431 879.162 852.972C879.704 853.513 880.44 853.817 881.206 853.817H922.971C923.738 853.817 924.473 853.513 925.016 852.972C925.558 852.431 925.863 851.698 925.863 850.933C925.863 850.168 925.558 849.434 925.016 848.893C924.473 848.352 923.738 848.049 922.971 848.049Z" fill="#3F3D56"/>
<path d="M963.682 866.316H880.654C879.362 866.316 878.315 867.61 878.315 869.2C878.315 870.79 879.362 872.084 880.654 872.084H963.682C964.974 872.084 966.021 870.79 966.021 869.2C966.021 867.61 964.974 866.316 963.682 866.316Z" fill="#3F3D56"/>
<path d="M963.682 885.023H880.654C879.362 885.023 878.315 886.318 878.315 887.907C878.315 889.497 879.362 890.792 880.654 890.792H963.682C964.974 890.792 966.021 889.497 966.021 887.907C966.021 886.318 964.974 885.023 963.682 885.023Z" fill="#3F3D56"/>
<path d="M849.336 916.109H777.372C775.583 916.107 773.869 915.397 772.604 914.136C771.339 912.874 770.628 911.164 770.625 909.379V829.26C770.628 827.476 771.339 825.765 772.604 824.504C773.869 823.242 775.583 822.532 777.372 822.53H849.336C851.125 822.532 852.84 823.242 854.105 824.504C855.369 825.765 856.081 827.476 856.083 829.26V909.379C856.081 911.164 855.369 912.874 854.105 914.136C852.84 915.397 851.125 916.107 849.336 916.109Z" fill="#5E6EE4"/>
<path d="M982.984 824.774C995.759 824.774 1006.12 814.443 1006.12 801.699C1006.12 788.956 995.759 778.625 982.984 778.625C970.209 778.625 959.853 788.956 959.853 801.699C959.853 814.443 970.209 824.774 982.984 824.774Z" fill="#5E6EE4"/>
<path d="M981.683 811.04C981.053 811.041 980.439 810.838 979.934 810.461L979.903 810.437L973.314 805.405C973.008 805.172 972.752 804.882 972.558 804.55C972.365 804.218 972.24 803.851 972.189 803.47C972.138 803.09 972.163 802.703 972.262 802.332C972.361 801.961 972.533 801.613 972.767 801.308C973.001 801.004 973.293 800.748 973.626 800.556C973.959 800.364 974.327 800.239 974.709 800.189C975.09 800.139 975.478 800.165 975.85 800.264C976.222 800.364 976.57 800.536 976.875 800.77L981.142 804.034L991.227 790.915C991.461 790.611 991.752 790.355 992.085 790.163C992.418 789.972 992.785 789.847 993.166 789.797C993.547 789.747 993.935 789.772 994.306 789.871C994.677 789.97 995.025 790.141 995.331 790.375L995.268 790.459L995.332 790.376C995.947 790.847 996.35 791.543 996.452 792.311C996.553 793.078 996.345 793.855 995.874 794.469L984.012 809.901C983.738 810.256 983.385 810.544 982.981 810.742C982.577 810.939 982.133 811.041 981.683 811.04Z" fill="white"/>
<path d="M670.711 1133.71H454.177C451.281 1133.71 448.504 1132.56 446.456 1130.52C444.409 1128.47 443.257 1125.7 443.253 1122.82V1001.68C443.257 998.787 444.409 996.018 446.456 993.975C448.504 991.932 451.281 990.783 454.177 990.78H670.711C673.607 990.783 676.384 991.932 678.431 993.975C680.479 996.018 681.631 998.787 681.634 1001.68V1122.82C681.631 1125.7 680.479 1128.47 678.431 1130.52C676.384 1132.56 673.607 1133.71 670.711 1133.71ZM454.177 992.062C451.621 992.065 449.171 993.079 447.365 994.881C445.558 996.683 444.541 999.127 444.538 1001.68V1122.82C444.541 1125.36 445.558 1127.81 447.365 1129.61C449.171 1131.41 451.621 1132.43 454.177 1132.43H670.711C673.266 1132.43 675.716 1131.41 677.523 1129.61C679.33 1127.81 680.346 1125.36 680.349 1122.82V1001.68C680.346 999.127 679.33 996.683 677.523 994.881C675.716 993.079 673.266 992.065 670.711 992.062H454.177Z" fill="#3F3D56"/>
<path d="M615.839 1039.05H574.074C573.307 1039.05 572.572 1039.36 572.029 1039.9C571.487 1040.44 571.183 1041.17 571.183 1041.94C571.183 1042.7 571.487 1043.43 572.029 1043.98C572.572 1044.52 573.307 1044.82 574.074 1044.82H615.839C616.606 1044.82 617.341 1044.52 617.883 1043.98C618.426 1043.43 618.73 1042.7 618.73 1041.94C618.73 1041.17 618.426 1040.44 617.883 1039.9C617.341 1039.36 616.606 1039.05 615.839 1039.05Z" fill="#3F3D56"/>
<path d="M656.55 1057.32H573.522C572.23 1057.32 571.183 1058.61 571.183 1060.2C571.183 1061.79 572.23 1063.09 573.522 1063.09H656.55C657.842 1063.09 658.889 1061.79 658.889 1060.2C658.889 1058.61 657.842 1057.32 656.55 1057.32Z" fill="#3F3D56"/>
<path d="M656.55 1076.03H573.522C572.23 1076.03 571.183 1077.32 571.183 1078.91C571.183 1080.5 572.23 1081.8 573.522 1081.8H656.55C657.842 1081.8 658.889 1080.5 658.889 1078.91C658.889 1077.32 657.842 1076.03 656.55 1076.03Z" fill="#3F3D56"/>
<path d="M542.204 1107.11H470.24C468.451 1107.11 466.736 1106.4 465.471 1105.14C464.207 1103.88 463.495 1102.17 463.493 1100.38V1020.26C463.495 1018.48 464.207 1016.77 465.471 1015.51C466.736 1014.25 468.451 1013.54 470.24 1013.53H542.204C543.993 1013.54 545.707 1014.25 546.972 1015.51C548.237 1016.77 548.948 1018.48 548.95 1020.26V1100.38C548.948 1102.17 548.237 1103.88 546.972 1105.14C545.707 1106.4 543.993 1107.11 542.204 1107.11Z" fill="#5E6EE4"/>
<path d="M675.852 1015.78C688.627 1015.78 698.983 1005.45 698.983 992.703C698.983 979.959 688.627 969.629 675.852 969.629C663.076 969.629 652.72 979.959 652.72 992.703C652.72 1005.45 663.076 1015.78 675.852 1015.78Z" fill="#5E6EE4"/>
<path d="M674.551 1002.04C673.92 1002.04 673.306 1001.84 672.802 1001.46L672.77 1001.44L666.182 996.409C665.876 996.176 665.619 995.885 665.426 995.553C665.233 995.221 665.107 994.854 665.056 994.474C665.006 994.093 665.03 993.706 665.13 993.335C665.229 992.964 665.4 992.617 665.634 992.312C665.868 992.007 666.16 991.751 666.494 991.559C666.827 991.367 667.195 991.243 667.577 991.193C667.958 991.143 668.346 991.168 668.718 991.268C669.089 991.368 669.438 991.539 669.743 991.773L674.01 995.037L684.094 981.918C684.328 981.614 684.62 981.359 684.953 981.167C685.286 980.975 685.653 980.85 686.034 980.8C686.415 980.75 686.802 980.775 687.174 980.874C687.545 980.974 687.893 981.145 688.198 981.378L688.135 981.463L688.2 981.379C688.815 981.851 689.218 982.547 689.319 983.314C689.421 984.082 689.213 984.858 688.742 985.473L676.88 1000.9C676.605 1001.26 676.253 1001.55 675.849 1001.75C675.445 1001.94 675.001 1002.04 674.551 1002.04Z" fill="white"/>
<path d="M977.844 1133.71H761.309C758.413 1133.71 755.636 1132.56 753.589 1130.52C751.541 1128.47 750.389 1125.7 750.386 1122.82V1001.68C750.389 998.787 751.541 996.018 753.589 993.975C755.636 991.932 758.413 990.783 761.309 990.78H977.844C980.74 990.783 983.516 991.932 985.564 993.975C987.611 996.018 988.763 998.787 988.767 1001.68V1122.82C988.763 1125.7 987.611 1128.47 985.564 1130.52C983.516 1132.56 980.74 1133.71 977.844 1133.71ZM761.309 992.062C758.754 992.065 756.304 993.079 754.497 994.881C752.69 996.683 751.674 999.127 751.671 1001.68V1122.82C751.674 1125.36 752.69 1127.81 754.497 1129.61C756.304 1131.41 758.754 1132.43 761.309 1132.43H977.844C980.399 1132.43 982.849 1131.41 984.655 1129.61C986.462 1127.81 987.479 1125.36 987.482 1122.82V1001.68C987.479 999.127 986.462 996.683 984.655 994.881C982.849 993.079 980.399 992.065 977.844 992.062H761.309Z" fill="#3F3D56"/>
<path d="M922.971 1039.05H881.206C880.44 1039.05 879.704 1039.36 879.162 1039.9C878.62 1040.44 878.315 1041.17 878.315 1041.94C878.315 1042.7 878.62 1043.43 879.162 1043.98C879.704 1044.52 880.44 1044.82 881.206 1044.82H922.971C923.738 1044.82 924.473 1044.52 925.016 1043.98C925.558 1043.43 925.863 1042.7 925.863 1041.94C925.863 1041.17 925.558 1040.44 925.016 1039.9C924.473 1039.36 923.738 1039.05 922.971 1039.05Z" fill="#3F3D56"/>
<path d="M963.682 1057.32H880.654C879.362 1057.32 878.315 1058.61 878.315 1060.2C878.315 1061.79 879.362 1063.09 880.654 1063.09H963.682C964.974 1063.09 966.021 1061.79 966.021 1060.2C966.021 1058.61 964.974 1057.32 963.682 1057.32Z" fill="#3F3D56"/>
<path d="M963.682 1076.03H880.654C879.362 1076.03 878.315 1077.32 878.315 1078.91C878.315 1080.5 879.362 1081.8 880.654 1081.8H963.682C964.974 1081.8 966.021 1080.5 966.021 1078.91C966.021 1077.32 964.974 1076.03 963.682 1076.03Z" fill="#3F3D56"/>
<path d="M849.336 1107.11H777.372C775.583 1107.11 773.869 1106.4 772.604 1105.14C771.339 1103.88 770.628 1102.17 770.625 1100.38V1020.26C770.628 1018.48 771.339 1016.77 772.604 1015.51C773.869 1014.25 775.583 1013.54 777.372 1013.53H849.336C851.125 1013.54 852.84 1014.25 854.105 1015.51C855.369 1016.77 856.081 1018.48 856.083 1020.26V1100.38C856.081 1102.17 855.369 1103.88 854.105 1105.14C852.84 1106.4 851.125 1107.11 849.336 1107.11Z" fill="#5E6EE4"/>
<path d="M982.984 1015.78C995.759 1015.78 1006.12 1005.45 1006.12 992.703C1006.12 979.959 995.759 969.629 982.984 969.629C970.209 969.629 959.853 979.959 959.853 992.703C959.853 1005.45 970.209 1015.78 982.984 1015.78Z" fill="#5E6EE4"/>
<path d="M981.683 1002.04C981.053 1002.04 980.439 1001.84 979.934 1001.46L979.903 1001.44L973.314 996.409C973.008 996.176 972.752 995.885 972.558 995.553C972.365 995.221 972.24 994.854 972.189 994.474C972.138 994.093 972.163 993.706 972.262 993.335C972.361 992.964 972.533 992.617 972.767 992.312C973.001 992.007 973.293 991.751 973.626 991.559C973.959 991.367 974.327 991.243 974.709 991.193C975.09 991.143 975.478 991.168 975.85 991.268C976.222 991.368 976.57 991.539 976.875 991.773L981.142 995.037L991.227 981.918C991.461 981.614 991.752 981.359 992.085 981.167C992.418 980.975 992.785 980.85 993.166 980.8C993.547 980.75 993.935 980.775 994.306 980.874C994.677 980.974 995.025 981.145 995.331 981.378L995.268 981.463L995.332 981.379C995.947 981.851 996.35 982.547 996.452 983.314C996.553 984.082 996.345 984.858 995.874 985.473L984.012 1000.9C983.738 1001.26 983.385 1001.55 982.981 1001.75C982.577 1001.94 982.133 1002.04 981.683 1002.04Z" fill="white"/>
<path d="M815.733 900.19C814.113 900.145 812.096 900.088 810.543 898.957C810.08 898.606 809.7 898.158 809.429 897.645C809.158 897.132 809.003 896.566 808.974 895.987C808.946 895.576 809.014 895.164 809.172 894.782C809.33 894.401 809.575 894.062 809.886 893.791C810.349 893.446 810.891 893.222 811.463 893.14C812.035 893.058 812.618 893.12 813.16 893.321L811.837 883.676L812.808 883.543L814.363 894.882L813.552 894.511C812.612 894.08 811.321 893.862 810.519 894.538C810.322 894.714 810.169 894.934 810.071 895.179C809.973 895.425 809.933 895.689 809.954 895.953C809.978 896.384 810.094 896.805 810.296 897.187C810.497 897.569 810.779 897.903 811.121 898.167C812.33 899.048 813.937 899.161 815.761 899.212L815.733 900.19Z" fill="white"/>
<path d="M807.034 884.508H801.754V885.485H807.034V884.508Z" fill="white"/>
<path d="M823.699 884.508H818.419V885.485H823.699V884.508Z" fill="white"/>
<path d="M792.581 871.004C788.329 870.521 785.037 866.457 784.675 862.334C784.245 857.429 787.108 852.77 791.037 850.018C795.145 847.139 800.264 845.937 805.217 845.672C814.879 845.193 824.374 848.315 831.856 854.431C835.567 857.506 839.033 861.422 840.346 866.153C841.487 870.262 840.559 874.916 837.246 877.793C836.427 878.498 835.47 879.027 834.435 879.344C833.401 879.662 832.312 879.762 831.237 879.639C828.667 879.373 826.295 878.025 824.242 876.536C820.249 873.64 816.971 869.605 812.106 868.091C808.539 866.982 803.91 867.958 801.73 871.176C801.235 871.913 800.915 872.752 800.793 873.63C800.748 873.817 800.775 874.015 800.871 874.182C800.966 874.35 801.122 874.475 801.306 874.532C801.494 874.583 801.694 874.557 801.864 874.462C802.033 874.366 802.158 874.207 802.21 874.02C802.783 869.967 807.779 868.455 811.284 869.38C816.396 870.73 819.827 875.28 824.021 878.171C826.192 879.785 828.749 880.804 831.438 881.124C833.769 881.306 836.083 880.597 837.91 879.141C841.492 876.319 842.863 871.465 842.07 867.095C841.153 862.034 837.738 857.697 833.992 854.339C826.396 847.603 816.536 843.969 806.375 844.162C801.192 844.28 795.785 845.348 791.32 848.08C786.989 850.731 783.642 855.165 783.204 860.319C782.819 864.856 785.259 869.601 789.448 871.589C790.436 872.055 791.495 872.354 792.581 872.471C793.52 872.578 793.512 871.11 792.581 871.004H792.581Z" fill="white"/>
<path d="M815.733 1088.63C814.113 1088.58 812.096 1088.53 810.543 1087.4C810.08 1087.05 809.7 1086.6 809.429 1086.08C809.158 1085.57 809.003 1085.01 808.974 1084.43C808.946 1084.02 809.014 1083.6 809.172 1083.22C809.33 1082.84 809.575 1082.5 809.886 1082.23C810.349 1081.89 810.891 1081.66 811.463 1081.58C812.035 1081.5 812.618 1081.56 813.16 1081.76L811.837 1072.12L812.808 1071.98L814.363 1083.32L813.552 1082.95C812.612 1082.52 811.321 1082.3 810.519 1082.98C810.322 1083.15 810.169 1083.37 810.071 1083.62C809.973 1083.86 809.933 1084.13 809.954 1084.39C809.978 1084.82 810.094 1085.24 810.296 1085.63C810.497 1086.01 810.779 1086.34 811.121 1086.61C812.33 1087.49 813.937 1087.6 815.761 1087.65L815.733 1088.63Z" fill="white"/>
<path d="M807.034 1072.95H801.754V1073.93H807.034V1072.95Z" fill="white"/>
<path d="M823.699 1072.95H818.419V1073.93H823.699V1072.95Z" fill="white"/>
<path d="M792.581 1059.44C788.329 1058.96 785.037 1054.9 784.675 1050.77C784.245 1045.87 787.108 1041.21 791.037 1038.46C795.145 1035.58 800.264 1034.38 805.217 1034.11C814.879 1033.63 824.374 1036.75 831.856 1042.87C835.567 1045.95 839.033 1049.86 840.346 1054.59C841.487 1058.7 840.559 1063.36 837.246 1066.23C836.427 1066.94 835.47 1067.47 834.435 1067.78C833.401 1068.1 832.312 1068.2 831.237 1068.08C828.667 1067.81 826.295 1066.46 824.242 1064.98C820.249 1062.08 816.971 1058.04 812.106 1056.53C808.539 1055.42 803.91 1056.4 801.73 1059.62C801.235 1060.35 800.915 1061.19 800.793 1062.07C800.748 1062.26 800.775 1062.45 800.871 1062.62C800.966 1062.79 801.122 1062.91 801.306 1062.97C801.494 1063.02 801.694 1063 801.864 1062.9C802.033 1062.81 802.158 1062.65 802.21 1062.46C802.783 1058.41 807.779 1056.89 811.284 1057.82C816.396 1059.17 819.827 1063.72 824.021 1066.61C826.192 1068.23 828.749 1069.24 831.438 1069.56C833.769 1069.75 836.083 1069.04 837.91 1067.58C841.492 1064.76 842.863 1059.9 842.07 1055.53C841.153 1050.47 837.738 1046.14 833.992 1042.78C826.396 1036.04 816.536 1032.41 806.375 1032.6C801.192 1032.72 795.785 1033.79 791.32 1036.52C786.989 1039.17 783.642 1043.6 783.204 1048.76C782.819 1053.3 785.259 1058.04 789.448 1060.03C790.436 1060.5 791.495 1060.79 792.581 1060.91C793.52 1061.02 793.512 1059.55 792.581 1059.44H792.581Z" fill="white"/>
<path d="M505.389 1088.63C503.768 1088.58 501.751 1088.53 500.198 1087.4C499.736 1087.05 499.356 1086.6 499.085 1086.08C498.814 1085.57 498.658 1085.01 498.63 1084.43C498.602 1084.02 498.669 1083.6 498.828 1083.22C498.986 1082.84 499.23 1082.5 499.542 1082.23C500.004 1081.89 500.547 1081.66 501.118 1081.58C501.69 1081.5 502.273 1081.56 502.815 1081.76L501.492 1072.12L502.463 1071.98L504.018 1083.32L503.208 1082.95C502.267 1082.52 500.976 1082.3 500.174 1082.98C499.977 1083.15 499.824 1083.37 499.726 1083.62C499.628 1083.86 499.588 1084.13 499.609 1084.39C499.633 1084.82 499.75 1085.24 499.951 1085.63C500.152 1086.01 500.434 1086.34 500.777 1086.61C501.985 1087.49 503.593 1087.6 505.416 1087.65L505.389 1088.63Z" fill="white"/>
<path d="M496.689 1072.95H491.409V1073.93H496.689V1072.95Z" fill="white"/>
<path d="M513.354 1072.95H508.074V1073.93H513.354V1072.95Z" fill="white"/>
<path d="M482.236 1059.44C477.985 1058.96 474.692 1054.9 474.33 1050.77C473.9 1045.87 476.764 1041.21 480.692 1038.46C484.801 1035.58 489.92 1034.38 494.872 1034.11C504.534 1033.63 514.029 1036.75 521.511 1042.87C525.222 1045.95 528.688 1049.86 530.002 1054.59C531.142 1058.7 530.214 1063.36 526.902 1066.23C526.082 1066.94 525.125 1067.47 524.091 1067.78C523.056 1068.1 521.967 1068.2 520.892 1068.08C518.322 1067.81 515.951 1066.46 513.898 1064.98C509.905 1062.08 506.626 1058.04 501.761 1056.53C498.194 1055.42 493.565 1056.4 491.385 1059.62C490.891 1060.35 490.57 1061.19 490.448 1062.07C490.403 1062.26 490.431 1062.45 490.526 1062.62C490.621 1062.79 490.777 1062.91 490.961 1062.97C491.149 1063.02 491.35 1063 491.519 1062.9C491.688 1062.81 491.813 1062.65 491.866 1062.46C492.438 1058.41 497.434 1056.89 500.94 1057.82C506.051 1059.17 509.482 1063.72 513.676 1066.61C515.847 1068.23 518.405 1069.24 521.093 1069.56C523.425 1069.75 525.738 1069.04 527.565 1067.58C531.148 1064.76 532.518 1059.9 531.726 1055.53C530.808 1050.47 527.394 1046.14 523.647 1042.78C516.052 1036.04 506.191 1032.41 496.03 1032.6C490.848 1032.72 485.44 1033.79 480.975 1036.52C476.644 1039.17 473.297 1043.6 472.86 1048.76C472.474 1053.3 474.915 1058.04 479.103 1060.03C480.091 1060.5 481.15 1060.79 482.236 1060.91C483.175 1061.02 483.167 1059.55 482.236 1059.44H482.236Z" fill="white"/>
<path d="M505.389 901.472C503.768 901.427 501.751 901.37 500.198 900.238C499.736 899.888 499.356 899.44 499.085 898.927C498.814 898.414 498.658 897.848 498.63 897.269C498.602 896.858 498.669 896.445 498.828 896.064C498.986 895.683 499.23 895.344 499.542 895.073C500.004 894.728 500.547 894.504 501.118 894.422C501.69 894.34 502.273 894.402 502.815 894.603L501.492 884.958L502.463 884.825L504.018 896.164L503.208 895.792C502.267 895.362 500.976 895.144 500.174 895.819C499.977 895.996 499.824 896.216 499.726 896.461C499.628 896.707 499.588 896.971 499.609 897.235C499.633 897.666 499.75 898.086 499.951 898.469C500.152 898.851 500.434 899.185 500.777 899.449C501.985 900.33 503.593 900.443 505.416 900.494L505.389 901.472Z" fill="#3F3D56"/>
<path d="M496.689 885.79H491.409V886.767H496.689V885.79Z" fill="#3F3D56"/>
<path d="M513.354 885.79H508.074V886.767H513.354V885.79Z" fill="#3F3D56"/>
<path d="M482.236 872.286C477.985 871.803 474.692 867.739 474.33 863.616C473.9 858.711 476.764 854.052 480.692 851.3C484.801 848.421 489.92 847.219 494.872 846.954C504.534 846.475 514.029 849.597 521.511 855.713C525.222 858.788 528.688 862.704 530.002 867.435C531.142 871.544 530.214 876.198 526.902 879.075C526.082 879.78 525.125 880.309 524.091 880.626C523.056 880.944 521.967 881.044 520.892 880.921C518.322 880.655 515.951 879.307 513.898 877.818C509.905 874.921 506.626 870.887 501.761 869.373C498.194 868.264 493.565 869.24 491.385 872.458C490.891 873.195 490.57 874.034 490.448 874.912C490.403 875.099 490.431 875.297 490.526 875.464C490.621 875.632 490.777 875.757 490.961 875.814C491.149 875.865 491.35 875.839 491.519 875.744C491.688 875.648 491.813 875.489 491.866 875.302C492.438 871.249 497.434 869.737 500.94 870.662C506.051 872.012 509.482 876.562 513.676 879.453C515.847 881.067 518.405 882.086 521.093 882.406C523.425 882.588 525.738 881.879 527.565 880.423C531.148 877.601 532.518 872.747 531.726 868.377C530.808 863.316 527.394 858.978 523.647 855.621C516.052 848.885 506.191 845.251 496.03 845.444C490.848 845.562 485.44 846.63 480.975 849.362C476.644 852.012 473.297 856.447 472.86 861.601C472.474 866.138 474.915 870.883 479.103 872.871C480.091 873.337 481.15 873.636 482.236 873.753C483.175 873.86 483.167 872.392 482.236 872.286H482.236Z" fill="#3F3D56"/>
</g>
</g>
<defs>
<clipPath id="clip0_12_4120">
<rect width="1250" height="817" fill="white" transform="translate(125 342)"/>
</clipPath>
<clipPath id="clip1_12_4120">
<rect width="562.862" height="355.087" fill="white" transform="translate(443.253 778.625)"/>
</clipPath>
</defs>
</svg>
